<svg width="24" height="24" viewBox="0 0 24 24" fill="none" xmlns="http://www.w3.org/2000/svg">
<path fill-rule="evenodd" clip-rule="evenodd" d="M24 12C24 18.6274 18.6274 24 12 24C5.37258 24 0 18.6274 0 12C0 5.37258 5.37258 0 12 0C18.6274 0 24 5.37258 24 12ZM19 12C19 15.866 15.866 19 12 19C8.13401 19 5 15.866 5 12C5 8.13401 8.13401 5 12 5C15.866 5 19 8.13401 19 12ZM10.75 9.75C10.1977 9.75 9.75 10.1977 9.75 10.75V13.25C9.75 13.8023 10.1977 14.25 10.75 14.25H13.25C13.8023 14.25 14.25 13.8023 14.25 13.25V10.75C14.25 10.1977 13.8023 9.75 13.25 9.75H10.75Z" fill="#2D65F8"/>
</svg>
